<?xml version="1.0" standalone="no"?><!-- Generator: Gravit.io --><svg xmlns="http://www.w3.org/2000/svg" xmlns:xlink="http://www.w3.org/1999/xlink" style="isolation:isolate" viewBox="0 0 90 380" width="90" height="380"><defs><clipPath id="_clipPath_oDCj4DqbRncuqUNGtWqEIMuxANI7zplN"><rect width="90" height="380"/></clipPath></defs><g clip-path="url(#_clipPath_oDCj4DqbRncuqUNGtWqEIMuxANI7zplN)"><path d=" M 0 0 L 90 0 L 90 380 L 0 380 L 0 0 Z " fill-rule="evenodd" fill="rgb(240,240,240)"/><path d=" M 23.48 364.56 L 23.48 364.56 L 23.48 355.78 L 23.48 355.78 Q 23.48 354.14 24.63 353.38 L 24.63 353.38 L 24.63 353.38 Q 25.78 352.62 27.82 352.62 L 27.82 352.62 L 27.82 352.62 Q 29.86 352.62 30.94 353.68 L 30.94 353.68 L 30.94 353.68 Q 32 352.62 34.04 352.62 L 34.04 352.62 L 34.04 352.62 Q 38.4 352.62 38.4 355.78 L 38.4 355.78 L 38.4 364.56 L 38.4 364.56 Q 38.4 365.02 37.6 365.02 L 37.6 365.02 L 37.6 365.02 Q 36.8 365.02 36.8 364.56 L 36.8 364.56 L 36.8 355.58 L 36.8 355.58 Q 36.8 354.02 34.27 354.02 L 34.27 354.02 L 34.27 354.02 Q 31.74 354.02 31.74 355.62 L 31.74 355.62 L 31.74 364.56 L 31.74 364.56 Q 31.74 365.02 30.94 365.02 L 30.94 365.02 L 30.94 365.02 Q 30.14 365.02 30.14 364.56 L 30.14 364.56 L 30.14 355.58 L 30.14 355.58 Q 30.14 354.02 27.61 354.02 L 27.61 354.02 L 27.61 354.02 Q 25.08 354.02 25.08 355.58 L 25.08 355.58 L 25.08 364.56 L 25.08 364.56 Q 25.08 365.02 24.28 365.02 L 24.28 365.02 L 24.28 365.02 Q 23.48 365.02 23.48 364.56 Z  M 51.26 349.38 L 51.26 349.38 L 51.26 362.06 L 51.26 362.06 Q 51.26 363.72 50.08 364.47 L 50.08 364.47 L 50.08 364.47 Q 48.9 365.22 46.94 365.22 L 46.94 365.22 L 46.94 365.22 Q 44.98 365.22 43.79 364.47 L 43.79 364.47 L 43.79 364.47 Q 42.6 363.72 42.6 362.06 L 42.6 362.06 L 42.6 356.08 L 42.6 356.08 Q 42.6 354.42 43.78 353.67 L 43.78 353.67 L 43.78 353.67 Q 44.96 352.92 46.92 352.92 L 46.92 352.92 L 48.66 352.92 L 48.66 352.92 Q 49.06 352.92 49.06 353.62 L 49.06 353.62 L 49.06 353.62 Q 49.06 354.32 48.66 354.32 L 48.66 354.32 L 46.92 354.32 L 46.92 354.32 Q 44.2 354.32 44.2 355.88 L 44.2 355.88 L 44.2 362.26 L 44.2 362.26 Q 44.2 363.82 46.93 363.82 L 46.93 363.82 L 46.93 363.82 Q 49.66 363.82 49.66 362.26 L 49.66 362.26 L 49.66 349.38 L 49.66 349.38 Q 49.66 348.92 50.46 348.92 L 50.46 348.92 L 50.46 348.92 Q 51.26 348.92 51.26 349.38 Z  M 64.52 355.78 L 64.52 355.78 L 64.52 364.56 L 64.52 364.56 Q 64.52 365.02 63.72 365.02 L 63.72 365.02 L 63.72 365.02 Q 62.92 365.02 62.92 364.56 L 62.92 364.56 L 62.92 355.58 L 62.92 355.58 Q 62.92 354.02 60.19 354.02 L 60.19 354.02 L 60.19 354.02 Q 57.46 354.02 57.46 355.58 L 57.46 355.58 L 57.46 364.56 L 57.46 364.56 Q 57.46 365.02 56.66 365.02 L 56.66 365.02 L 56.66 365.02 Q 55.86 365.02 55.86 364.56 L 55.86 364.56 L 55.86 349.38 L 55.86 349.38 Q 55.86 348.92 56.66 348.92 L 56.66 348.92 L 56.66 348.92 Q 57.46 348.92 57.46 349.38 L 57.46 349.38 L 57.46 353.44 L 57.46 353.44 Q 58.56 352.62 60.35 352.62 L 60.35 352.62 L 60.35 352.62 Q 62.14 352.62 63.33 353.37 L 63.33 353.37 L 63.33 353.37 Q 64.52 354.12 64.52 355.78 Z " fill-rule="evenodd" fill="rgb(0,0,0)"/><path d=" M 21.633 52.12 L 21.633 52.12 L 21.633 52.12 Q 21.633 52.562 22.084 52.562 L 22.084 52.562 L 22.084 52.562 Q 22.535 52.562 22.84 52.392 L 22.84 52.392 L 22.756 54.313 L 22.756 54.313 Q 21.94 54.976 20.92 54.976 L 20.92 54.976 L 20.92 54.976 Q 19.049 54.976 18.846 53.616 L 18.846 53.616 L 18.846 53.616 Q 17.996 54.976 16.347 54.976 L 16.347 54.976 L 16.347 54.976 Q 13.559 54.976 13.559 52.579 L 13.559 52.579 L 13.559 52.579 Q 13.559 52.171 13.644 51.678 L 13.644 51.678 L 14 49.689 L 14 49.689 Q 14.273 48.159 15.25 47.25 L 15.25 47.25 L 15.25 47.25 Q 16.228 46.34 17.962 46.34 L 17.962 46.34 L 17.962 46.34 Q 19.032 46.34 19.662 46.799 L 19.662 46.799 L 20.528 41.835 L 23.435 41.835 L 21.65 51.916 L 21.65 51.916 Q 21.633 52.018 21.633 52.12 Z  M 16.823 50.029 L 16.601 51.304 L 16.601 51.304 Q 16.567 51.457 16.567 51.729 L 16.567 51.729 L 16.567 51.729 Q 16.567 52.001 16.823 52.264 L 16.823 52.264 L 16.823 52.264 Q 17.077 52.528 17.681 52.528 L 17.681 52.528 L 17.681 52.528 Q 18.285 52.528 18.726 52.052 L 18.726 52.052 L 19.236 49.196 L 19.236 49.196 Q 19.049 48.771 18.353 48.771 L 18.353 48.771 L 18.353 48.771 Q 17.044 48.771 16.823 50.029 L 16.823 50.029 Z  M 32.19 52.12 L 32.19 52.12 L 32.19 52.12 Q 32.19 52.562 32.641 52.562 L 32.641 52.562 L 32.641 52.562 Q 33.091 52.562 33.397 52.392 L 33.397 52.392 L 33.313 54.313 L 33.313 54.313 Q 32.496 54.976 31.476 54.976 L 31.476 54.976 L 31.476 54.976 Q 29.607 54.976 29.403 53.616 L 29.403 53.616 L 29.403 53.616 Q 28.552 54.976 26.903 54.976 L 26.903 54.976 L 26.903 54.976 Q 24.115 54.976 24.115 52.579 L 24.115 52.579 L 24.115 52.579 Q 24.115 52.171 24.201 51.678 L 24.201 51.678 L 24.558 49.689 L 24.558 49.689 Q 24.83 48.159 25.807 47.25 L 25.807 47.25 L 25.807 47.25 Q 26.785 46.34 28.357 46.34 L 28.357 46.34 L 28.357 46.34 Q 29.93 46.34 30.49 47.071 L 30.49 47.071 L 30.576 46.561 L 33.16 46.561 L 32.208 51.916 L 32.208 51.916 Q 32.19 52.018 32.19 52.12 Z  M 27.379 50.029 L 27.159 51.304 L 27.159 51.304 Q 27.125 51.457 27.125 51.729 L 27.125 51.729 L 27.125 51.729 Q 27.125 52.001 27.379 52.264 L 27.379 52.264 L 27.379 52.264 Q 27.635 52.528 28.238 52.528 L 28.238 52.528 L 28.238 52.528 Q 28.841 52.528 29.284 52.052 L 29.284 52.052 L 29.794 49.196 L 29.794 49.196 Q 29.607 48.771 28.91 48.771 L 28.91 48.771 L 28.91 48.771 Q 27.601 48.771 27.379 50.029 L 27.379 50.029 Z  M 39.925 49.519 L 39.925 49.519 L 39.925 49.519 Q 39.925 48.788 39.22 48.788 L 39.22 48.788 L 39.22 48.788 Q 38.514 48.788 38.056 49.315 L 38.056 49.315 L 37.104 54.738 L 34.214 54.738 L 35.659 46.561 L 38.345 46.561 L 38.158 47.564 L 38.158 47.564 Q 39.16 46.323 40.69 46.323 L 40.69 46.323 L 40.69 46.323 Q 42.221 46.323 42.68 47.071 L 42.68 47.071 L 42.68 47.071 Q 42.968 47.547 42.968 48.159 L 42.968 48.159 L 42.968 48.159 Q 42.968 48.771 42.883 49.298 L 42.883 49.298 L 42.424 51.916 L 42.424 51.916 Q 42.408 52.018 42.408 52.103 L 42.408 52.103 L 42.408 52.103 Q 42.408 52.562 42.917 52.562 L 42.917 52.562 L 42.917 52.562 Q 43.308 52.562 43.614 52.392 L 43.614 52.392 L 43.529 54.313 L 43.529 54.313 Q 42.73 54.976 41.71 54.976 L 41.71 54.976 L 41.71 54.976 Q 39.398 54.976 39.398 53.038 L 39.398 53.038 L 39.398 53.038 Q 39.398 52.698 39.466 52.307 L 39.466 52.307 L 39.875 50.046 L 39.875 50.046 Q 39.925 49.74 39.925 49.519 Z  M 48.051 54.976 L 48.051 54.976 L 48.051 54.976 Q 44.515 54.976 44.515 52.528 L 44.515 52.528 L 44.515 52.528 Q 44.515 52.188 44.583 51.797 L 44.583 51.797 L 44.94 49.689 L 44.94 49.689 Q 45.213 48.057 46.428 47.19 L 46.428 47.19 L 46.428 47.19 Q 47.644 46.323 49.514 46.306 L 49.514 46.306 L 49.514 46.306 Q 53.134 46.306 53.134 48.822 L 53.134 48.822 L 53.134 48.822 Q 53.134 49.366 53.007 49.799 L 53.007 49.799 L 53.007 49.799 Q 52.88 50.233 52.743 50.386 L 52.743 50.386 L 52.607 50.556 L 49.717 50.556 L 49.717 50.556 Q 50.143 50.182 50.143 49.672 L 50.143 49.672 L 50.143 49.672 Q 50.143 48.754 49.224 48.754 L 49.224 48.754 L 49.224 48.754 Q 48.681 48.754 48.29 49.077 L 48.29 49.077 L 48.29 49.077 Q 47.898 49.4 47.779 50.063 L 47.779 50.063 L 47.558 51.304 L 47.558 51.304 Q 47.525 51.474 47.525 51.627 L 47.525 51.627 L 47.525 51.627 Q 47.525 52.528 48.646 52.528 L 48.646 52.528 L 48.646 52.528 Q 49.021 52.528 49.318 52.29 L 49.318 52.29 L 49.318 52.29 Q 49.616 52.052 49.667 51.763 L 49.667 51.763 L 52.488 51.797 L 52.488 51.797 Q 51.928 54.976 48.051 54.976 Z  M 57.402 54.976 L 57.402 54.976 L 57.402 54.976 Q 53.866 54.976 53.866 52.528 L 53.866 52.528 L 53.866 52.528 Q 53.866 52.188 53.933 51.797 L 53.933 51.797 L 54.291 49.689 L 54.291 49.689 Q 54.579 48.057 55.795 47.181 L 55.795 47.181 L 55.795 47.181 Q 57.011 46.306 59.016 46.306 L 59.016 46.306 L 59.016 46.306 Q 62.433 46.306 62.433 48.89 L 62.433 48.89 L 62.433 48.89 Q 62.433 49.264 62.366 49.706 L 62.366 49.706 L 62.161 50.913 L 56.977 50.913 L 56.909 51.304 L 56.909 51.304 Q 56.875 51.508 56.875 51.678 L 56.875 51.678 L 56.875 51.678 Q 56.875 52.613 57.979 52.613 L 57.979 52.613 L 57.979 52.613 Q 58.388 52.613 58.676 52.358 L 58.676 52.358 L 58.676 52.358 Q 58.965 52.103 59.016 51.763 L 59.016 51.763 L 61.839 51.797 L 61.839 51.797 Q 61.278 54.976 57.402 54.976 Z  M 57.146 49.876 L 59.442 49.876 L 59.442 49.876 Q 59.509 49.587 59.509 49.34 L 59.509 49.34 L 59.509 49.34 Q 59.509 49.094 59.289 48.839 L 59.289 48.839 L 59.289 48.839 Q 59.068 48.584 58.583 48.584 L 58.583 48.584 L 58.583 48.584 Q 58.098 48.584 57.699 48.907 L 57.699 48.907 L 57.699 48.907 Q 57.299 49.23 57.146 49.876 L 57.146 49.876 Z  M 71.596 48.295 L 71.596 48.295 L 71.596 48.295 Q 71.596 48.873 71.401 49.417 L 71.401 49.417 L 71.401 49.417 Q 71.205 49.961 71.019 50.216 L 71.019 50.216 L 70.831 50.454 L 68.265 50.454 L 68.265 50.454 Q 68.689 50.063 68.689 49.485 L 68.689 49.485 L 68.689 49.485 Q 68.689 49.179 68.494 48.984 L 68.494 48.984 L 68.494 48.984 Q 68.299 48.788 67.959 48.788 L 67.959 48.788 L 67.959 48.788 Q 67.381 48.788 66.955 49.366 L 66.955 49.366 L 66.004 54.738 L 63.113 54.738 L 64.559 46.561 L 67.244 46.561 L 67.04 47.7 L 67.04 47.7 Q 68.009 46.323 69.386 46.323 L 69.386 46.323 L 69.386 46.323 Q 70.492 46.323 71.044 46.85 L 71.044 46.85 L 71.044 46.85 Q 71.596 47.377 71.596 48.295 Z  M 77.053 41.291 L 75.201 50.284 L 72.939 50.284 L 74.163 41.291 L 77.053 41.291 Z  M 71.902 53.752 L 71.902 53.752 L 71.902 53.752 Q 71.902 52.664 72.379 52.162 L 72.379 52.162 L 72.379 52.162 Q 72.854 51.661 73.892 51.661 L 73.892 51.661 L 73.892 51.661 Q 75.32 51.661 75.32 52.919 L 75.32 52.919 L 75.32 52.919 Q 75.32 53.99 74.835 54.483 L 74.835 54.483 L 74.835 54.483 Q 74.351 54.976 73.313 54.976 L 73.313 54.976 L 73.313 54.976 Q 71.902 54.976 71.902 53.752 Z  M 33.576 21.367 L 33.576 21.367 L 33.576 21.367 Q 35.259 21.367 35.939 22.302 L 35.939 22.302 L 35.939 22.302 Q 36.449 22.965 36.449 23.917 L 36.449 23.917 L 36.449 23.917 Q 36.449 24.308 36.364 24.733 L 36.364 24.733 L 36.024 26.637 L 36.024 26.637 Q 35.735 28.269 34.52 29.145 L 34.52 29.145 L 34.52 29.145 Q 33.304 30.02 31.459 30.02 L 31.459 30.02 L 31.459 30.02 Q 29.615 30.02 28.629 29.289 L 28.629 29.289 L 28.629 29.289 Q 27.847 28.711 27.847 27.674 L 27.847 27.674 L 27.847 27.674 Q 27.847 27.402 27.898 27.113 L 27.898 27.113 L 29.7 16.879 L 32.59 16.879 L 31.723 21.826 L 31.723 21.826 Q 32.437 21.367 33.576 21.367 Z  M 33.202 26.263 L 33.423 24.988 L 33.423 24.988 Q 33.44 24.852 33.44 24.605 L 33.44 24.605 L 33.44 24.605 Q 33.44 24.359 33.228 24.079 L 33.228 24.079 L 33.228 24.079 Q 33.015 23.798 32.31 23.798 L 32.31 23.798 L 32.31 23.798 Q 31.604 23.798 31.298 24.223 L 31.298 24.223 L 30.805 27.062 L 30.805 27.062 Q 31.009 27.572 31.655 27.572 L 31.655 27.572 L 31.655 27.572 Q 32.964 27.572 33.202 26.263 L 33.202 26.263 Z  M 43.334 21.384 L 43.334 21.384 L 43.334 21.384 Q 45.068 21.384 45.731 22.302 L 45.731 22.302 L 45.731 22.302 Q 46.207 22.931 46.207 23.9 L 46.207 23.9 L 46.207 23.9 Q 46.207 24.291 46.122 24.733 L 46.122 24.733 L 45.782 26.722 L 45.782 26.722 Q 45.493 28.337 44.541 29.178 L 44.541 29.178 L 44.541 29.178 Q 43.589 30.02 42.161 30.02 L 42.161 30.02 L 42.161 30.02 Q 40.733 30.02 40.172 29.255 L 40.172 29.255 L 39.254 34.508 L 36.364 34.508 L 38.642 21.605 L 41.26 21.605 L 41.175 22.064 L 41.175 22.064 Q 41.974 21.384 43.334 21.384 Z  M 41.566 27.572 L 41.566 27.572 L 41.566 27.572 Q 42.042 27.572 42.45 27.266 L 42.45 27.266 L 42.45 27.266 Q 42.858 26.96 42.96 26.348 L 42.96 26.348 L 43.181 25.073 L 43.181 25.073 Q 43.215 24.903 43.215 24.648 L 43.215 24.648 L 43.215 24.648 Q 43.215 24.393 42.994 24.104 L 42.994 24.104 L 42.994 24.104 Q 42.773 23.815 42.229 23.815 L 42.229 23.815 L 42.229 23.815 Q 41.345 23.815 41.073 24.24 L 41.073 24.24 L 40.563 27.096 L 40.563 27.096 Q 40.801 27.572 41.566 27.572 Z  M 61.303 27.606 L 61.303 27.606 L 61.303 27.606 Q 61.694 27.606 62 27.436 L 62 27.436 L 61.915 29.357 L 61.915 29.357 Q 61.116 30.02 60.096 30.02 L 60.096 30.02 L 60.096 30.02 Q 57.784 30.02 57.784 28.082 L 57.784 28.082 L 57.784 28.082 Q 57.784 27.742 57.852 27.351 L 57.852 27.351 L 58.209 25.26 L 58.209 25.26 Q 58.26 24.954 58.26 24.648 L 58.26 24.648 L 58.26 24.648 Q 58.26 23.832 57.368 23.832 L 57.368 23.832 L 57.368 23.832 Q 56.475 23.832 55.965 24.529 L 55.965 24.529 L 55.047 29.782 L 52.157 29.782 L 52.956 25.26 L 52.956 25.26 Q 53.007 24.954 53.007 24.648 L 53.007 24.648 L 53.007 24.648 Q 53.007 23.832 52.089 23.832 L 52.089 23.832 L 52.089 23.832 Q 51.358 23.832 50.831 24.393 L 50.831 24.393 L 49.879 29.782 L 46.989 29.782 L 48.434 21.605 L 51.12 21.605 L 50.933 22.625 L 50.933 22.625 Q 51.953 21.367 53.517 21.367 L 53.517 21.367 L 53.517 21.367 Q 55.727 21.367 56.033 22.829 L 56.033 22.829 L 56.033 22.829 Q 57.053 21.367 58.762 21.367 L 58.762 21.367 L 58.762 21.367 Q 60.47 21.367 60.98 22.132 L 60.98 22.132 L 60.98 22.132 Q 61.32 22.659 61.32 23.288 L 61.32 23.288 L 61.32 23.288 Q 61.32 23.917 61.235 24.427 L 61.235 24.427 L 60.81 26.96 L 60.81 26.96 Q 60.793 27.062 60.793 27.147 L 60.793 27.147 L 60.793 27.147 Q 60.793 27.606 61.303 27.606 Z " fill-rule="evenodd" fill="rgb(0,0,0)"/><path d=" M 27.209 312.488 L 27.209 312.488 L 27.209 312.488 Q 28.892 312.488 29.572 313.423 L 29.572 313.423 L 29.572 313.423 Q 30.082 314.086 30.082 315.038 L 30.082 315.038 L 30.082 315.038 Q 30.082 315.429 29.997 315.854 L 29.997 315.854 L 29.657 317.758 L 29.657 317.758 Q 29.368 319.39 28.153 320.266 L 28.153 320.266 L 28.153 320.266 Q 26.937 321.141 25.093 321.141 L 25.093 321.141 L 25.093 321.141 Q 23.248 321.141 22.262 320.41 L 22.262 320.41 L 22.262 320.41 Q 21.48 319.832 21.48 318.795 L 21.48 318.795 L 21.48 318.795 Q 21.48 318.523 21.531 318.234 L 21.531 318.234 L 23.333 308 L 26.223 308 L 25.356 312.947 L 25.356 312.947 Q 26.07 312.488 27.209 312.488 Z  M 26.835 317.384 L 27.056 316.109 L 27.056 316.109 Q 27.073 315.973 27.073 315.726 L 27.073 315.726 L 27.073 315.726 Q 27.073 315.48 26.861 315.199 L 26.861 315.199 L 26.861 315.199 Q 26.648 314.919 25.943 314.919 L 25.943 314.919 L 25.943 314.919 Q 25.237 314.919 24.931 315.344 L 24.931 315.344 L 24.438 318.183 L 24.438 318.183 Q 24.642 318.693 25.288 318.693 L 25.288 318.693 L 25.288 318.693 Q 26.597 318.693 26.835 317.384 L 26.835 317.384 Z  M 34.502 321.141 L 34.502 321.141 L 34.502 321.141 Q 30.966 321.141 30.966 318.693 L 30.966 318.693 L 30.966 318.693 Q 30.966 318.353 31.034 317.962 L 31.034 317.962 L 31.391 315.854 L 31.391 315.854 Q 31.68 314.222 32.896 313.346 L 32.896 313.346 L 32.896 313.346 Q 34.111 312.471 36.117 312.471 L 36.117 312.471 L 36.117 312.471 Q 39.534 312.471 39.534 315.055 L 39.534 315.055 L 39.534 315.055 Q 39.534 315.429 39.466 315.871 L 39.466 315.871 L 39.262 317.078 L 34.077 317.078 L 34.009 317.469 L 34.009 317.469 Q 33.975 317.673 33.975 317.843 L 33.975 317.843 L 33.975 317.843 Q 33.975 318.778 35.08 318.778 L 35.08 318.778 L 35.08 318.778 Q 35.488 318.778 35.777 318.523 L 35.777 318.523 L 35.777 318.523 Q 36.066 318.268 36.117 317.928 L 36.117 317.928 L 38.939 317.962 L 38.939 317.962 Q 38.378 321.141 34.502 321.141 Z  M 34.247 316.041 L 36.542 316.041 L 36.542 316.041 Q 36.61 315.752 36.61 315.505 L 36.61 315.505 L 36.61 315.505 Q 36.61 315.259 36.389 315.004 L 36.389 315.004 L 36.389 315.004 Q 36.168 314.749 35.684 314.749 L 35.684 314.749 L 35.684 314.749 Q 35.199 314.749 34.8 315.072 L 34.8 315.072 L 34.8 315.072 Q 34.4 315.395 34.247 316.041 L 34.247 316.041 Z  M 48.425 318.285 L 48.425 318.285 L 48.425 318.285 Q 48.425 318.727 48.876 318.727 L 48.876 318.727 L 48.876 318.727 Q 49.326 318.727 49.632 318.557 L 49.632 318.557 L 49.547 320.478 L 49.547 320.478 Q 48.731 321.141 47.711 321.141 L 47.711 321.141 L 47.711 321.141 Q 45.841 321.141 45.637 319.781 L 45.637 319.781 L 45.637 319.781 Q 44.787 321.141 43.138 321.141 L 43.138 321.141 L 43.138 321.141 Q 40.35 321.141 40.35 318.744 L 40.35 318.744 L 40.35 318.744 Q 40.35 318.336 40.435 317.843 L 40.435 317.843 L 40.792 315.854 L 40.792 315.854 Q 41.064 314.324 42.042 313.414 L 42.042 313.414 L 42.042 313.414 Q 43.019 312.505 44.592 312.505 L 44.592 312.505 L 44.592 312.505 Q 46.164 312.505 46.725 313.236 L 46.725 313.236 L 46.81 312.726 L 49.394 312.726 L 48.442 318.081 L 48.442 318.081 Q 48.425 318.183 48.425 318.285 Z  M 43.614 316.194 L 43.393 317.469 L 43.393 317.469 Q 43.359 317.622 43.359 317.894 L 43.359 317.894 L 43.359 317.894 Q 43.359 318.166 43.614 318.43 L 43.614 318.43 L 43.614 318.43 Q 43.869 318.693 44.473 318.693 L 44.473 318.693 L 44.473 318.693 Q 45.076 318.693 45.518 318.217 L 45.518 318.217 L 46.028 315.361 L 46.028 315.361 Q 45.841 314.936 45.144 314.936 L 45.144 314.936 L 45.144 314.936 Q 43.835 314.936 43.614 316.194 L 43.614 316.194 Z  M 54.324 321.141 L 54.324 321.141 L 54.324 321.141 Q 52.352 321.141 51.485 320.257 L 51.485 320.257 L 51.485 320.257 Q 50.839 319.611 50.839 318.523 L 50.839 318.523 L 50.839 318.523 Q 50.839 318.166 50.907 317.758 L 50.907 317.758 L 52.063 311.179 L 55.174 309.887 L 54.681 312.726 L 59.373 312.726 L 58.948 315.123 L 54.256 315.123 L 53.916 317.044 L 53.916 317.044 Q 53.848 317.367 53.848 317.622 L 53.848 317.622 L 53.848 317.622 Q 53.848 318.693 54.868 318.693 L 54.868 318.693 L 54.868 318.693 Q 55.412 318.693 55.778 318.234 L 55.778 318.234 L 55.778 318.234 Q 56.143 317.775 56.279 317.01 L 56.279 317.01 L 59.101 317.01 L 59.101 317.01 Q 58.387 321.141 54.324 321.141 Z  M 68.519 314.494 L 68.519 314.494 L 68.519 314.494 Q 68.519 315.055 68.18 315.531 L 68.18 315.531 L 65.391 315.531 L 65.391 315.531 Q 65.527 315.429 65.527 315.191 L 65.527 315.191 L 65.527 315.191 Q 65.527 314.953 65.255 314.809 L 65.255 314.809 L 65.255 314.809 Q 64.983 314.664 64.558 314.664 L 64.558 314.664 L 64.558 314.664 Q 63.283 314.664 63.283 315.446 L 63.283 315.446 L 63.283 315.446 Q 63.283 315.752 63.759 315.888 L 63.759 315.888 L 63.759 315.888 Q 64.235 316.024 64.915 316.109 L 64.915 316.109 L 64.915 316.109 Q 65.595 316.194 66.275 316.355 L 66.275 316.355 L 66.275 316.355 Q 66.955 316.517 67.431 316.993 L 67.431 316.993 L 67.431 316.993 Q 67.907 317.469 67.907 318.268 L 67.907 318.268 L 67.907 318.268 Q 67.907 319.679 66.777 320.41 L 66.777 320.41 L 66.777 320.41 Q 65.646 321.141 63.487 321.141 L 63.487 321.141 L 63.487 321.141 Q 61.328 321.141 60.461 320.444 L 60.461 320.444 L 60.461 320.444 Q 59.781 319.9 59.781 318.948 L 59.781 318.948 L 59.781 318.948 Q 59.781 318.676 59.832 318.387 L 59.832 318.387 L 62.671 318.353 L 62.671 318.353 Q 62.637 318.591 62.952 318.769 L 62.952 318.769 L 62.952 318.769 Q 63.266 318.948 63.878 318.948 L 63.878 318.948 L 63.878 318.948 Q 64.49 318.948 64.762 318.82 L 64.762 318.82 L 64.762 318.82 Q 65.034 318.693 65.034 318.336 L 65.034 318.336 L 65.034 318.336 Q 65.034 318.098 64.558 318.005 L 64.558 318.005 L 64.558 318.005 Q 64.082 317.911 63.394 317.843 L 63.394 317.843 L 63.394 317.843 Q 62.705 317.775 62.017 317.622 L 62.017 317.622 L 62.017 317.622 Q 61.328 317.469 60.852 316.976 L 60.852 316.976 L 60.852 316.976 Q 60.376 316.483 60.376 315.684 L 60.376 315.684 L 60.376 315.684 Q 60.376 314.137 61.575 313.304 L 61.575 313.304 L 61.575 313.304 Q 62.773 312.471 65.034 312.471 L 65.034 312.471 L 65.034 312.471 Q 68.519 312.471 68.519 314.494 Z " fill-rule="evenodd" fill="rgb(0,0,0)"/></g></svg>