<?xml version="1.0" standalone="no"?><!-- Generator: Gravit.io --><svg xmlns="http://www.w3.org/2000/svg" xmlns:xlink="http://www.w3.org/1999/xlink" style="isolation:isolate" viewBox="0 0 360 380" width="360" height="380"><defs><clipPath id="_clipPath_voCFNlwuJ2ZrhxqYeADwUCUZYW8i4QfS"><rect width="360" height="380"/></clipPath></defs><g clip-path="url(#_clipPath_voCFNlwuJ2ZrhxqYeADwUCUZYW8i4QfS)"><path d=" M 0 0 L 360 0 L 360 380 L 0 380 L 0 0 Z " fill-rule="evenodd" fill="rgb(240,240,240)"/><path d=" M 159.48 362.64 L 159.48 362.64 L 159.48 353.86 L 159.48 353.86 Q 159.48 352.22 160.63 351.46 L 160.63 351.46 L 160.63 351.46 Q 161.78 350.7 163.82 350.7 L 163.82 350.7 L 163.82 350.7 Q 165.86 350.7 166.94 351.76 L 166.94 351.76 L 166.94 351.76 Q 168 350.7 170.04 350.7 L 170.04 350.7 L 170.04 350.7 Q 174.4 350.7 174.4 353.86 L 174.4 353.86 L 174.4 362.64 L 174.4 362.64 Q 174.4 363.1 173.6 363.1 L 173.6 363.1 L 173.6 363.1 Q 172.8 363.1 172.8 362.64 L 172.8 362.64 L 172.8 353.66 L 172.8 353.66 Q 172.8 352.1 170.27 352.1 L 170.27 352.1 L 170.27 352.1 Q 167.74 352.1 167.74 353.7 L 167.74 353.7 L 167.74 362.64 L 167.74 362.64 Q 167.74 363.1 166.94 363.1 L 166.94 363.1 L 166.94 363.1 Q 166.14 363.1 166.14 362.64 L 166.14 362.64 L 166.14 353.66 L 166.14 353.66 Q 166.14 352.1 163.61 352.1 L 163.61 352.1 L 163.61 352.1 Q 161.08 352.1 161.08 353.66 L 161.08 353.66 L 161.08 362.64 L 161.08 362.64 Q 161.08 363.1 160.28 363.1 L 160.28 363.1 L 160.28 363.1 Q 159.48 363.1 159.48 362.64 Z  M 187.26 347.46 L 187.26 347.46 L 187.26 360.14 L 187.26 360.14 Q 187.26 361.8 186.08 362.55 L 186.08 362.55 L 186.08 362.55 Q 184.9 363.3 182.94 363.3 L 182.94 363.3 L 182.94 363.3 Q 180.98 363.3 179.79 362.55 L 179.79 362.55 L 179.79 362.55 Q 178.6 361.8 178.6 360.14 L 178.6 360.14 L 178.6 354.16 L 178.6 354.16 Q 178.6 352.5 179.78 351.75 L 179.78 351.75 L 179.78 351.75 Q 180.96 351 182.92 351 L 182.92 351 L 184.66 351 L 184.66 351 Q 185.06 351 185.06 351.7 L 185.06 351.7 L 185.06 351.7 Q 185.06 352.4 184.66 352.4 L 184.66 352.4 L 182.92 352.4 L 182.92 352.4 Q 180.2 352.4 180.2 353.96 L 180.2 353.96 L 180.2 360.34 L 180.2 360.34 Q 180.2 361.9 182.93 361.9 L 182.93 361.9 L 182.93 361.9 Q 185.66 361.9 185.66 360.34 L 185.66 360.34 L 185.66 347.46 L 185.66 347.46 Q 185.66 347 186.46 347 L 186.46 347 L 186.46 347 Q 187.26 347 187.26 347.46 Z  M 200.52 353.86 L 200.52 353.86 L 200.52 362.64 L 200.52 362.64 Q 200.52 363.1 199.72 363.1 L 199.72 363.1 L 199.72 363.1 Q 198.92 363.1 198.92 362.64 L 198.92 362.64 L 198.92 353.66 L 198.92 353.66 Q 198.92 352.1 196.19 352.1 L 196.19 352.1 L 196.19 352.1 Q 193.46 352.1 193.46 353.66 L 193.46 353.66 L 193.46 362.64 L 193.46 362.64 Q 193.46 363.1 192.66 363.1 L 192.66 363.1 L 192.66 363.1 Q 191.86 363.1 191.86 362.64 L 191.86 362.64 L 191.86 347.46 L 191.86 347.46 Q 191.86 347 192.66 347 L 192.66 347 L 192.66 347 Q 193.46 347 193.46 347.46 L 193.46 347.46 L 193.46 351.52 L 193.46 351.52 Q 194.56 350.7 196.35 350.7 L 196.35 350.7 L 196.35 350.7 Q 198.14 350.7 199.33 351.45 L 199.33 351.45 L 199.33 351.45 Q 200.52 352.2 200.52 353.86 Z " fill-rule="evenodd" fill="rgb(0,0,0)"/></g></svg>