<svg width="580" height="400" xmlns="http://www.w3.org/2000/svg">
 <!-- Created with Method Draw - http://github.com/duopixel/Method-Draw/ -->
 <g>
  <title>background</title>
  <rect fill="#ffffff" id="canvas_background" height="402" width="582" y="-1" x="-1"/>
  <g display="none" overflow="visible" y="0" x="0" height="100%" width="100%" id="canvasGrid">
   <rect fill="url(#gridpattern)" stroke-width="0" y="0" x="0" height="100%" width="100%"/>
  </g>
 </g>
 <g>
  <title>Layer 1</title>
  <path d="m296.5,66c0,0 -0.8862,-0.723297 -5,-1c-9.034973,-0.607712 -12.807312,2.575989 -24,6c-7.885498,2.412292 -27.157028,7.386429 -40,11c-15.220383,4.282494 -41.292847,15.582413 -50,22c-16.595032,12.231316 -25.011642,17.313118 -44,42c-10.147087,13.192291 -21.937965,42.639236 -25,52c-7.31778,22.370743 -6.928177,33.334763 -2,56c2.889885,13.290924 13.634872,36.275757 19,43c15.020279,18.825287 24.370499,25.503784 42,32c10.698532,3.942261 33.003677,6.309265 46,6c21.017853,-0.500153 34.228058,-1.683655 61,-7c12.132416,-2.409241 30.213226,-8.551147 39,-13c7.192841,-3.641846 25.212677,-14.698059 31,-19c23.942627,-17.797485 34.436371,-25.012909 43,-38c2.964478,-4.495758 12.059326,-20.9673 17,-30c7.085358,-12.953674 10.372223,-18.969269 10,-33c-0.213806,-8.059418 -2.525299,-20.084427 -4,-27c-3.036621,-14.240051 -6.364777,-21.487198 -18,-36c-6.649292,-8.293785 -20.443512,-25.69236 -29,-32c-12.286682,-9.057442 -20.380249,-14.715752 -46,-23c-11.769318,-3.805656 -57,-9 -77,-10l-13,0l-13,2l-7,2" id="svg_2" stroke-width="1.5" stroke="#000" fill="none"/>
  <path d="m216.5,137c-1,-1 -3,-2 -4,-2c-1,0 -6.934814,0.31131 -11,1c-10.890182,1.84494 -17.353943,-0.309631 -27,3c-2.115036,0.725693 -4.519287,2.558197 -7,6c-1.307449,1.813995 -3.458801,5.693436 -4,7c-2.296097,5.543274 0.126862,10.617172 6,18c1.760834,2.21347 6.904358,6.258011 12,8c13.777405,4.709915 22.815109,7.07254 43,10c10.931,1.585342 25.041321,1.152771 29,0c6.072327,-1.768265 7.385101,-4.372009 10,-8c0.826904,-1.147263 3.623627,-5.860199 4,-9c1.433228,-11.955994 -3.162903,-19.702469 -10,-27c-12.60701,-13.455978 -31.92868,-20.442505 -43,-22c-9.951889,-1.400017 -24.305222,0.170074 -28,2c-5.73793,2.84185 -7,6 -9,10l0,2" id="svg_3" stroke-width="1.5" stroke="#000" fill="none"/>
  <path d="m222.5,161c0,0 -0.076126,-0.38269 -1,0c-1.306564,0.541199 -2,1 -6,1c-3,0 -4,0 -4,-1c0,0 0.824432,-1.097885 2,-3c0.525726,-0.850647 6,-2 9,-2c1,0 1,1 1,1c0,0 -0.692551,1.186005 -2,3c-1.653809,2.29454 -4,3 -4,3c0,0 0,-1 0,-2c0,-1 -0.525726,-4.149353 0,-5c1.175568,-1.902115 2,-1 2,-1l0,0" id="svg_4" stroke-width="1.5" stroke="#000" fill="none"/>
  <path d="m369.5,126c0,0 0,0 0,0c-1,0 -1,0 -2,0c-1,0 -5.928345,0.350677 -10,1c-13.860535,2.210403 -23.174866,2.587875 -33,7c-4.079651,1.832031 -12.078156,6.898514 -16,10c-6.126099,4.844666 -8.99411,7.519043 -12,15c-1.537231,3.825821 -2.378204,10.036087 -2,12c1.018372,5.287994 3.116394,8.038574 10,13c3.627991,2.614899 12.987183,7.052704 17,8c8.9729,2.11821 15.172394,3.101974 25,1c3.092346,-0.661407 5.220551,-2.831284 9,-8c2.128174,-2.910461 3.486267,-8.823746 4,-11c0.919006,-3.89299 0.847229,-7.041321 2,-11c0.884125,-3.036163 0.389343,-9.159271 -1,-12c-3.168213,-6.477844 -4.549164,-8.95517 -8,-10c-1.914185,-0.579575 -11.96405,-0.753204 -18,0c-11.948914,1.491074 -21,1 -26,2c0,0 -2,1 -3,2l-1,0l0,0l0,2" id="svg_5" stroke-width="1.5" stroke="#000" fill="none"/>
  <path d="m320.5,165c0,0 0,0 0,0c0,1 -0.693451,1.458801 -2,2c-0.923889,0.38269 -2.693451,1.458801 -4,2c-0.923889,0.38269 -1,0 -1,-1c0,-1 1,-3 1,-3c2,-1 5,-2 9,-3c0,0 0,1 0,1c0,1 0.306549,1.458801 -1,2c-1.847748,0.765366 -5,1 -5,1c0,0 -0.459503,-1.053497 0,-3c0.513733,-2.176254 2,-4 3,-5c0,0 1,0 2,1l1,1" id="svg_6" stroke-width="1.5" stroke="#000" fill="none"/>
  <path d="m275.5,188c0,0 0,1 0,3c0,2 2.687744,9.13652 5,14c4.420715,9.298248 8.380554,12.763046 12,19c1.122345,1.93399 1,2 1,2c-3,0 -8.065674,0.796707 -25,-1c-13.079529,-1.387711 -30,-3 -33,-3c0,0 0,0 0,0l1,0l2,-1" id="svg_7" stroke-width="1.5" stroke="#000" fill="none"/>
  <path d="m136.5,248c0,0 1,0 7,0c4,0 10.980453,0.14801 18,1c9.976654,1.210907 16,2 26,2c5,0 11.007736,-0.24855 15,0c8.046677,0.500961 14.031448,0.629059 28,2c8.023712,0.787476 22.043533,3.732086 29,5c9.070129,1.653137 14.096863,2.60025 19,4c8.215759,2.345428 13.09317,3.796631 22,8c4.044373,1.90863 8.056641,3.917542 11,6c4.081696,2.887848 5.95517,3.549164 7,7c0.289795,0.957092 -1,3 -3,5c-5,5 -7.841003,6.72876 -20,9c-7.925171,1.480377 -18.019867,1.797028 -34,1c-20.074799,-1.001251 -30.272141,-2.925446 -52,-9c-9.13649,-2.554321 -18.068863,-4.734009 -34,-9c-7.032349,-1.883118 -19.07843,-7.789856 -22,-9c-4.131714,-1.711426 -5,-3 -6,-4c-1,-1 -1,-1 -1,-2c0,-2 0,-3 0,-4c0,-1 1,-3 1,-5c0,-1 0.292892,-1.292892 1,-2c0.707108,-0.707108 0,-1 0,-2c0,0 0,-1 0,-2c0,-1 1.486252,-1.823746 2,-4c0.229752,-0.973251 0,-1 0,-2l0,-2l0,-1l0,0" id="svg_8" stroke-width="1.5" stroke="#000" fill="none"/>
 </g>
</svg>