<?xml version="1.0" standalone="no"?><!-- Generator: Gravit.io --><svg xmlns="http://www.w3.org/2000/svg" xmlns:xlink="http://www.w3.org/1999/xlink" style="isolation:isolate" viewBox="0 0 90 380" width="90" height="380"><defs><clipPath id="_clipPath_qj6dtLYD41hkCqjavFQia8CNpJw9Oe4S"><rect width="90" height="380"/></clipPath></defs><g clip-path="url(#_clipPath_qj6dtLYD41hkCqjavFQia8CNpJw9Oe4S)"><path d=" M 0 0 L 90 0 L 90 380 L 0 380 L 0 0 Z " fill-rule="evenodd" fill="rgb(240,240,240)"/><path d=" M 15.22 51.34 L 15.22 51.34 Q 15.22 50.48 16.48 50.48 L 16.48 50.48 L 16.48 50.48 Q 17.02 50.48 18.54 50.52 L 18.54 50.52 L 18.54 50.52 Q 20.22 50.6 21.08 50.6 L 21.08 50.6 L 21.08 50.6 Q 21.78 50.6 22.78 50.52 L 22.78 50.52 L 22.78 50.52 Q 23.46 50.48 23.64 50.48 L 23.64 50.48 L 23.64 50.48 Q 24.74 50.52 25.5 50.88 L 25.5 50.88 L 25.5 50.88 Q 25.72 50.98 25.86 51.12 L 25.86 51.12 L 25.86 51.12 Q 26 51.26 26 51.58 L 26 51.58 L 26 51.58 Q 26 52.02 25.72 52.33 L 25.72 52.33 L 25.72 52.33 Q 25.44 52.64 25.04 52.64 L 25.04 52.64 L 25.04 52.64 Q 24.6 52.64 23.76 52.52 L 23.76 52.52 L 23.76 52.52 Q 23.02 52.38 22.46 52.38 L 22.46 52.38 L 22.46 52.38 Q 21.92 52.38 21.64 52.4 L 21.64 52.4 L 21.64 52.4 Q 21.58 53.06 21.58 55.56 L 21.58 55.56 L 21.58 55.56 Q 21.58 58.54 21.76 61.6 L 21.76 61.6 L 21.8 62.18 L 21.8 62.18 Q 21.8 63 20.86 63 L 20.86 63 L 20.86 63 Q 20.12 63 19.86 62.65 L 19.86 62.65 L 19.86 62.65 Q 19.6 62.3 19.6 61.58 L 19.6 61.58 L 19.6 61.58 Q 19.6 60.16 19.52 58.04 L 19.52 58.04 L 19.52 58.04 Q 19.44 56.28 19.44 55.54 L 19.44 55.54 L 19.44 55.54 Q 19.44 55.04 19.56 52.48 L 19.56 52.48 L 17.22 52.5 L 17.22 52.5 Q 16.1 52.5 15.66 52.29 L 15.66 52.29 L 15.66 52.29 Q 15.22 52.08 15.22 51.34 L 15.22 51.34 L 15.22 51.34 Z  M 27.12 58.76 L 27.12 58.76 Q 27.12 58 27.4 57.23 L 27.4 57.23 L 27.4 57.23 Q 27.68 56.46 28.14 55.82 L 28.14 55.82 L 28.14 55.82 Q 28.6 55.18 29.6 54.77 L 29.6 54.77 L 29.6 54.77 Q 30.6 54.36 31.38 54.36 L 31.38 54.36 L 31.38 54.36 Q 32.18 54.36 33.01 54.58 L 33.01 54.58 L 33.01 54.58 Q 33.84 54.8 34.16 55.26 L 34.16 55.26 L 34.16 55.26 Q 34.9 56.3 34.9 57.3 L 34.9 57.3 L 34.9 57.3 Q 34.9 57.84 34.67 58.22 L 34.67 58.22 L 34.67 58.22 Q 34.44 58.6 34.02 59.04 L 34.02 59.04 L 34.02 59.04 Q 33.68 59.4 32.95 59.52 L 32.95 59.52 L 32.95 59.52 Q 32.22 59.64 31.5 59.64 L 31.5 59.64 L 31.5 59.64 Q 31.04 59.64 30.38 59.55 L 30.38 59.55 L 30.38 59.55 Q 29.72 59.46 29.1 59.32 L 29.1 59.32 L 29.1 59.32 Q 29.14 59.72 29.3 60.1 L 29.3 60.1 L 29.3 60.1 Q 29.46 60.48 29.68 60.68 L 29.68 60.68 L 29.68 60.68 Q 30.08 61.06 30.51 61.16 L 30.51 61.16 L 30.51 61.16 Q 30.94 61.26 31.62 61.26 L 31.62 61.26 L 31.62 61.26 Q 32.34 61.26 32.96 61.02 L 32.96 61.02 L 32.96 61.02 Q 33.46 60.84 33.78 60.84 L 33.78 60.84 L 33.78 60.84 Q 34.16 60.84 34.36 61.07 L 34.36 61.07 L 34.36 61.07 Q 34.56 61.3 34.56 61.66 L 34.56 61.66 L 34.56 61.66 Q 34.56 62.16 33.98 62.48 L 33.98 62.48 L 33.98 62.48 Q 33.4 62.8 32.65 62.95 L 32.65 62.95 L 32.65 62.95 Q 31.9 63.1 31.44 63.1 L 31.44 63.1 L 31.44 63.1 Q 30.5 63.1 29.62 62.76 L 29.62 62.76 L 29.62 62.76 Q 28.74 62.42 28.16 61.8 L 28.16 61.8 L 28.16 61.8 Q 27.68 61.24 27.4 60.45 L 27.4 60.45 L 27.4 60.45 Q 27.12 59.66 27.12 58.76 L 27.12 58.76 L 27.12 58.76 Z  M 31.48 56.06 L 31.48 56.06 Q 31.04 56.06 30.6 56.23 L 30.6 56.23 L 30.6 56.23 Q 30.16 56.4 29.88 56.7 L 29.88 56.7 L 29.88 56.7 Q 29.52 57.08 29.39 57.31 L 29.39 57.31 L 29.39 57.31 Q 29.26 57.54 29.22 57.94 L 29.22 57.94 L 29.22 57.94 Q 29.72 58.1 31.3 58.1 L 31.3 58.1 L 31.3 58.1 Q 32.16 58.1 32.63 57.84 L 32.63 57.84 L 32.63 57.84 Q 33.1 57.58 33.1 57.16 L 33.1 57.16 L 33.1 57.16 Q 33.1 56.74 32.58 56.4 L 32.58 56.4 L 32.58 56.4 Q 32.06 56.06 31.48 56.06 L 31.48 56.06 L 31.48 56.06 Z  M 39.06 59.9 L 39.06 59.9 Q 39.06 60.66 39.29 61.07 L 39.29 61.07 L 39.29 61.07 Q 39.52 61.48 39.88 61.48 L 39.88 61.48 L 39.88 61.48 Q 40.08 61.48 40.26 61.45 L 40.26 61.45 L 40.26 61.45 Q 40.44 61.42 40.62 61.42 L 40.62 61.42 L 40.62 61.42 Q 40.82 61.42 40.97 61.62 L 40.97 61.62 L 40.97 61.62 Q 41.12 61.82 41.12 62.06 L 41.12 62.06 L 41.12 62.06 Q 41.12 62.54 40.67 62.81 L 40.67 62.81 L 40.67 62.81 Q 40.22 63.08 39.46 63.08 L 39.46 63.08 L 39.46 63.08 Q 38.92 63.08 38.37 62.75 L 38.37 62.75 L 38.37 62.75 Q 37.82 62.42 37.46 61.71 L 37.46 61.71 L 37.46 61.71 Q 37.1 61 37.1 59.94 L 37.1 59.94 L 37.1 59.94 Q 37.1 57.66 37.18 56.08 L 37.18 56.08 L 37.18 56.08 Q 37.28 54.2 37.28 51.34 L 37.28 51.34 L 37.28 51.34 Q 37.28 50.44 37.38 50.08 L 37.38 50.08 L 37.38 50.08 Q 37.5 49.8 37.77 49.65 L 37.77 49.65 L 37.77 49.65 Q 38.04 49.5 38.34 49.5 L 38.34 49.5 L 38.34 49.5 Q 38.64 49.5 38.87 49.6 L 38.87 49.6 L 38.87 49.6 Q 39.1 49.7 39.18 49.92 L 39.18 49.92 L 39.18 49.92 Q 39.26 50.16 39.29 50.39 L 39.29 50.39 L 39.29 50.39 Q 39.32 50.62 39.32 51.04 L 39.32 51.04 L 39.32 51.04 Q 39.32 51.86 39.26 52.62 L 39.26 52.62 L 39.26 52.62 Q 39.22 53.54 39.22 53.96 L 39.22 53.96 L 39.22 53.96 Q 39.06 57.48 39.06 59.9 L 39.06 59.9 L 39.06 59.9 Z  M 44.72 59.9 L 44.72 59.9 Q 44.72 60.66 44.95 61.07 L 44.95 61.07 L 44.95 61.07 Q 45.18 61.48 45.54 61.48 L 45.54 61.48 L 45.54 61.48 Q 45.74 61.48 45.92 61.45 L 45.92 61.45 L 45.92 61.45 Q 46.1 61.42 46.28 61.42 L 46.28 61.42 L 46.28 61.42 Q 46.48 61.42 46.63 61.62 L 46.63 61.62 L 46.63 61.62 Q 46.78 61.82 46.78 62.06 L 46.78 62.06 L 46.78 62.06 Q 46.78 62.54 46.33 62.81 L 46.33 62.81 L 46.33 62.81 Q 45.88 63.08 45.12 63.08 L 45.12 63.08 L 45.12 63.08 Q 44.58 63.08 44.03 62.75 L 44.03 62.75 L 44.03 62.75 Q 43.48 62.42 43.12 61.71 L 43.12 61.71 L 43.12 61.71 Q 42.76 61 42.76 59.94 L 42.76 59.94 L 42.76 59.94 Q 42.76 57.66 42.84 56.08 L 42.84 56.08 L 42.84 56.08 Q 42.94 54.2 42.94 51.34 L 42.94 51.34 L 42.94 51.34 Q 42.94 50.44 43.04 50.08 L 43.04 50.08 L 43.04 50.08 Q 43.16 49.8 43.43 49.65 L 43.43 49.65 L 43.43 49.65 Q 43.7 49.5 44 49.5 L 44 49.5 L 44 49.5 Q 44.3 49.5 44.53 49.6 L 44.53 49.6 L 44.53 49.6 Q 44.76 49.7 44.84 49.92 L 44.84 49.92 L 44.84 49.92 Q 44.92 50.16 44.95 50.39 L 44.95 50.39 L 44.95 50.39 Q 44.98 50.62 44.98 51.04 L 44.98 51.04 L 44.98 51.04 Q 44.98 51.86 44.92 52.62 L 44.92 52.62 L 44.92 52.62 Q 44.88 53.54 44.88 53.96 L 44.88 53.96 L 44.88 53.96 Q 44.72 57.48 44.72 59.9 L 44.72 59.9 L 44.72 59.9 Z  M 47.98 58.76 L 47.98 58.76 Q 47.98 58 48.26 57.23 L 48.26 57.23 L 48.26 57.23 Q 48.54 56.46 49 55.82 L 49 55.82 L 49 55.82 Q 49.46 55.18 50.46 54.77 L 50.46 54.77 L 50.46 54.77 Q 51.46 54.36 52.24 54.36 L 52.24 54.36 L 52.24 54.36 Q 53.04 54.36 53.87 54.58 L 53.87 54.58 L 53.87 54.58 Q 54.7 54.8 55.02 55.26 L 55.02 55.26 L 55.02 55.26 Q 55.76 56.3 55.76 57.3 L 55.76 57.3 L 55.76 57.3 Q 55.76 57.84 55.53 58.22 L 55.53 58.22 L 55.53 58.22 Q 55.3 58.6 54.88 59.04 L 54.88 59.04 L 54.88 59.04 Q 54.54 59.4 53.81 59.52 L 53.81 59.52 L 53.81 59.52 Q 53.08 59.64 52.36 59.64 L 52.36 59.64 L 52.36 59.64 Q 51.9 59.64 51.24 59.55 L 51.24 59.55 L 51.24 59.55 Q 50.58 59.46 49.96 59.32 L 49.96 59.32 L 49.96 59.32 Q 50 59.72 50.16 60.1 L 50.16 60.1 L 50.16 60.1 Q 50.32 60.48 50.54 60.68 L 50.54 60.68 L 50.54 60.68 Q 50.94 61.06 51.37 61.16 L 51.37 61.16 L 51.37 61.16 Q 51.8 61.26 52.48 61.26 L 52.48 61.26 L 52.48 61.26 Q 53.2 61.26 53.82 61.02 L 53.82 61.02 L 53.82 61.02 Q 54.32 60.84 54.64 60.84 L 54.64 60.84 L 54.64 60.84 Q 55.02 60.84 55.22 61.07 L 55.22 61.07 L 55.22 61.07 Q 55.42 61.3 55.42 61.66 L 55.42 61.66 L 55.42 61.66 Q 55.42 62.16 54.84 62.48 L 54.84 62.48 L 54.84 62.48 Q 54.26 62.8 53.51 62.95 L 53.51 62.95 L 53.51 62.95 Q 52.76 63.1 52.3 63.1 L 52.3 63.1 L 52.3 63.1 Q 51.36 63.1 50.48 62.76 L 50.48 62.76 L 50.48 62.76 Q 49.6 62.42 49.02 61.8 L 49.02 61.8 L 49.02 61.8 Q 48.54 61.24 48.26 60.45 L 48.26 60.45 L 48.26 60.45 Q 47.98 59.66 47.98 58.76 L 47.98 58.76 L 47.98 58.76 Z  M 52.34 56.06 L 52.34 56.06 Q 51.9 56.06 51.46 56.23 L 51.46 56.23 L 51.46 56.23 Q 51.02 56.4 50.74 56.7 L 50.74 56.7 L 50.74 56.7 Q 50.38 57.08 50.25 57.31 L 50.25 57.31 L 50.25 57.31 Q 50.12 57.54 50.08 57.94 L 50.08 57.94 L 50.08 57.94 Q 50.58 58.1 52.16 58.1 L 52.16 58.1 L 52.16 58.1 Q 53.02 58.1 53.49 57.84 L 53.49 57.84 L 53.49 57.84 Q 53.96 57.58 53.96 57.16 L 53.96 57.16 L 53.96 57.16 Q 53.96 56.74 53.44 56.4 L 53.44 56.4 L 53.44 56.4 Q 52.92 56.06 52.34 56.06 L 52.34 56.06 L 52.34 56.06 Z  M 60.64 62.2 L 60.64 62.2 Q 60.64 62.54 60.38 62.8 L 60.38 62.8 L 60.38 62.8 Q 60.12 63.06 59.74 63.06 L 59.74 63.06 L 59.74 63.06 Q 59.14 63.06 58.86 62.83 L 58.86 62.83 L 58.86 62.83 Q 58.58 62.6 58.58 61.98 L 58.58 61.98 L 58.58 61.98 Q 58.58 61.24 58.54 60.04 L 58.54 60.04 L 58.54 60.04 Q 58.5 59.04 58.5 58.36 L 58.5 58.36 L 58.5 58.36 Q 58.5 58.04 58.54 57.52 L 58.54 57.52 L 58.54 57.52 Q 58.58 57.04 58.58 56.8 L 58.58 56.8 L 58.58 56.8 Q 58.52 56.42 58.28 56.17 L 58.28 56.17 L 58.28 56.17 Q 58.04 55.92 57.66 55.92 L 57.66 55.92 L 57.66 55.92 Q 57.48 55.92 57.36 55.75 L 57.36 55.75 L 57.36 55.75 Q 57.24 55.58 57.24 55.4 L 57.24 55.4 L 57.24 55.4 Q 57.24 54.94 57.61 54.7 L 57.61 54.7 L 57.61 54.7 Q 57.98 54.46 58.5 54.46 L 58.5 54.46 L 58.5 54.46 Q 59.58 54.46 60 55.74 L 60 55.74 L 60 55.74 Q 60.52 55.14 61.19 54.77 L 61.19 54.77 L 61.19 54.77 Q 61.86 54.4 62.48 54.4 L 62.48 54.4 L 62.48 54.4 Q 63.22 54.4 63.83 54.8 L 63.83 54.8 L 63.83 54.8 Q 64.44 55.2 64.44 55.88 L 64.44 55.88 L 64.44 55.88 Q 64.44 56.26 64.11 56.66 L 64.11 56.66 L 64.11 56.66 Q 63.78 57.06 63.44 57.06 L 63.44 57.06 L 63.44 57.06 Q 63.26 57.06 63.13 56.97 L 63.13 56.97 L 63.13 56.97 Q 63 56.88 62.82 56.7 L 62.82 56.7 L 62.82 56.7 Q 62.62 56.5 62.48 56.41 L 62.48 56.41 L 62.48 56.41 Q 62.34 56.32 62.16 56.32 L 62.16 56.32 L 62.16 56.32 Q 61.84 56.32 61.56 56.42 L 61.56 56.42 L 61.56 56.42 Q 61.28 56.52 61.18 56.66 L 61.18 56.66 L 61.18 56.66 Q 60.86 57.16 60.71 57.56 L 60.71 57.56 L 60.71 57.56 Q 60.56 57.96 60.56 58.42 L 60.56 58.42 L 60.56 58.42 Q 60.56 58.76 60.54 58.96 L 60.54 58.96 L 60.52 60.1 L 60.52 60.1 Q 60.52 60.36 60.54 60.68 L 60.54 60.68 L 60.54 60.68 Q 60.56 61 60.58 61.16 L 60.58 61.16 L 60.58 61.16 Q 60.64 61.7 60.64 62.2 L 60.64 62.2 L 60.64 62.2 Z  M 68.12 51.4 L 68.12 51.4 Q 68.12 52.48 68 54.56 L 68 54.56 L 68 54.56 Q 67.88 56.56 67.88 57.62 L 67.88 57.62 L 67.88 57.62 Q 67.88 57.9 67.92 58.78 L 67.92 58.78 L 67.92 58.78 Q 67.9 59.12 67.68 59.29 L 67.68 59.29 L 67.68 59.29 Q 67.46 59.46 67.16 59.46 L 67.16 59.46 L 67.16 59.46 Q 66.84 59.46 66.58 59.3 L 66.58 59.3 L 66.58 59.3 Q 66.32 59.14 66.26 58.88 L 66.26 58.88 L 66.26 58.88 Q 66.02 57.24 66.02 54.96 L 66.02 54.96 L 66.04 51.84 L 66.04 51.84 Q 66.04 51.1 66.23 50.63 L 66.23 50.63 L 66.23 50.63 Q 66.42 50.16 67.06 50.16 L 67.06 50.16 L 67.06 50.16 Q 67.6 50.16 67.86 50.51 L 67.86 50.51 L 67.86 50.51 Q 68.12 50.86 68.12 51.4 L 68.12 51.4 L 68.12 51.4 Z  M 67.06 60.5 L 67.06 60.5 Q 68.42 60.5 68.42 61.52 L 68.42 61.52 L 68.42 61.52 Q 68.42 62.04 68.09 62.47 L 68.09 62.47 L 68.09 62.47 Q 67.76 62.9 67.26 62.9 L 67.26 62.9 L 67.26 62.9 Q 66.66 62.9 66.28 62.53 L 66.28 62.53 L 66.28 62.53 Q 65.9 62.16 65.9 61.66 L 65.9 61.66 L 65.9 61.66 Q 65.9 61.22 66.23 60.86 L 66.23 60.86 L 66.23 60.86 Q 66.56 60.5 67.06 60.5 L 67.06 60.5 L 67.06 60.5 Z  M 24.8 27.76 L 24.8 27.76 Q 24.8 27.18 25.07 26.75 L 25.07 26.75 L 25.07 26.75 Q 25.34 26.32 25.88 26.32 L 25.88 26.32 L 25.88 26.32 Q 26.34 26.32 26.7 26.5 L 26.7 26.5 L 26.7 26.5 Q 27.06 26.68 27.06 27.1 L 27.06 27.1 L 27.06 27.1 Q 27.06 27.92 26.98 29.4 L 26.98 29.4 L 26.98 29.4 Q 26.9 30.84 26.9 31.54 L 26.9 31.54 L 26.9 31.54 Q 26.9 32.64 26.98 34.48 L 26.98 34.48 L 26.98 34.48 Q 27.06 36.24 27.06 37.06 L 27.06 37.06 L 27.06 37.06 Q 27.06 37.72 27.04 38.04 L 27.04 38.04 L 27.04 38.04 Q 27.04 38.36 26.69 38.67 L 26.69 38.67 L 26.69 38.67 Q 26.34 38.98 25.62 38.98 L 25.62 38.98 L 25.62 38.98 Q 25.24 38.98 24.97 38.85 L 24.97 38.85 L 24.97 38.85 Q 24.7 38.72 24.6 38.56 L 24.6 38.56 L 24.6 38.56 Q 23.66 37.42 21.86 34.68 L 21.86 34.68 L 21.86 34.68 Q 19.84 31.62 18.56 30 L 18.56 30 L 18.56 30 Q 18.72 31.44 18.72 33.52 L 18.72 33.52 L 18.72 33.52 Q 18.72 34.44 18.69 35.91 L 18.69 35.91 L 18.69 35.91 Q 18.66 37.38 18.6 37.84 L 18.6 37.84 L 18.6 37.84 Q 18.52 38.42 18.25 38.73 L 18.25 38.73 L 18.25 38.73 Q 17.98 39.04 17.4 39.04 L 17.4 39.04 L 17.4 39.04 Q 16.96 39.04 16.75 38.79 L 16.75 38.79 L 16.75 38.79 Q 16.54 38.54 16.5 37.92 L 16.5 37.92 L 16.5 37.92 Q 16.48 37.1 16.6 35.46 L 16.6 35.46 L 16.6 35.46 Q 16.62 35.2 16.66 34.56 L 16.66 34.56 L 16.66 34.56 Q 16.7 33.92 16.7 33.42 L 16.7 33.42 L 16.7 33.42 Q 16.7 32.04 16.56 30.26 L 16.56 30.26 L 16.56 30.26 Q 16.44 28.3 16.44 27.36 L 16.44 27.36 L 16.44 27.36 Q 16.44 26.88 16.79 26.62 L 16.79 26.62 L 16.79 26.62 Q 17.14 26.36 17.6 26.36 L 17.6 26.36 L 17.6 26.36 Q 18 26.36 18.44 26.56 L 18.44 26.56 L 18.44 26.56 Q 20.16 28.72 23.1 33 L 23.1 33 L 24.98 35.88 L 24.98 35.88 Q 25 35.56 25 34.98 L 25 34.98 L 25 34.98 Q 25 33.96 24.96 32.78 L 24.96 32.78 L 24.96 32.78 Q 24.92 31.6 24.9 31.18 L 24.9 31.18 L 24.9 31.18 Q 24.8 29.24 24.8 27.76 L 24.8 27.76 L 24.8 27.76 Z  M 37.48 32.58 L 37.48 32.58 Q 37.64 32.86 37.74 33.39 L 37.74 33.39 L 37.74 33.39 Q 37.84 33.92 37.84 34.34 L 37.84 34.34 L 37.84 34.34 Q 37.84 35.12 37.5 36.56 L 37.5 36.56 L 37.5 36.56 Q 36.12 39.08 33.42 39.08 L 33.42 39.08 L 33.42 39.08 Q 32.42 39.08 31.38 38.42 L 31.38 38.42 L 31.38 38.42 Q 30.34 37.76 29.94 36.9 L 29.94 36.9 L 29.94 36.9 Q 29.4 35.18 29.4 34.72 L 29.4 34.72 L 29.4 34.72 Q 29.4 33.92 29.75 33.02 L 29.75 33.02 L 29.75 33.02 Q 30.1 32.12 30.64 31.46 L 30.64 31.46 L 30.64 31.46 Q 30.98 31 31.86 30.67 L 31.86 30.67 L 31.86 30.67 Q 32.74 30.34 33.46 30.34 L 33.46 30.34 L 33.46 30.34 Q 34.86 30.34 35.84 30.87 L 35.84 30.87 L 35.84 30.87 Q 36.82 31.4 37.48 32.58 L 37.48 32.58 L 37.48 32.58 Z  M 35.74 35.8 L 35.74 35.8 Q 35.84 35.54 35.84 34.46 L 35.84 34.46 L 35.84 34.46 Q 35.84 33.88 35.63 33.32 L 35.63 33.32 L 35.63 33.32 Q 35.42 32.76 35.02 32.36 L 35.02 32.36 L 35.02 32.36 Q 34.98 32.32 34.8 32.23 L 34.8 32.23 L 34.8 32.23 Q 34.62 32.14 34.31 32.05 L 34.31 32.05 L 34.31 32.05 Q 34 31.96 33.6 31.96 L 33.6 31.96 L 33.6 31.96 Q 32.48 31.96 31.96 32.86 L 31.96 32.86 L 31.96 32.86 Q 31.44 33.76 31.44 34.9 L 31.44 34.9 L 31.44 34.9 Q 31.44 35.1 31.55 35.66 L 31.55 35.66 L 31.55 35.66 Q 31.66 36.22 31.74 36.36 L 31.74 36.36 L 31.74 36.36 Q 31.8 36.5 32.05 36.75 L 32.05 36.75 L 32.05 36.75 Q 32.3 37 32.67 37.19 L 32.67 37.19 L 32.67 37.19 Q 33.04 37.38 33.44 37.38 L 33.44 37.38 L 33.44 37.38 Q 34.34 37.38 34.88 36.95 L 34.88 36.95 L 34.88 36.95 Q 35.42 36.52 35.74 35.8 L 35.74 35.8 L 35.74 35.8 Z  M 40.76 32.16 L 39.8 32.08 L 39.8 32.08 Q 39.52 32.04 39.35 31.84 L 39.35 31.84 L 39.35 31.84 Q 39.18 31.64 39.18 31.36 L 39.18 31.36 L 39.18 31.36 Q 39.18 31.22 39.25 31.06 L 39.25 31.06 L 39.25 31.06 Q 39.32 30.9 39.46 30.78 L 39.46 30.78 L 39.46 30.78 Q 39.72 30.52 40.86 30.52 L 40.86 30.52 L 40.86 30.52 Q 41.02 29.74 41.02 28.94 L 41.02 28.94 L 41.02 28.94 Q 41.02 28.64 41 28.42 L 41 28.42 L 41 28.42 Q 40.98 28.2 40.98 28.08 L 40.98 28.08 L 40.98 28.08 Q 40.98 27.64 41.31 27.42 L 41.31 27.42 L 41.31 27.42 Q 41.64 27.2 42.06 27.2 L 42.06 27.2 L 42.06 27.2 Q 42.58 27.2 42.77 27.46 L 42.77 27.46 L 42.77 27.46 Q 42.96 27.72 42.96 28.42 L 42.96 28.42 L 42.96 28.42 Q 42.96 29.46 42.78 30.46 L 42.78 30.46 L 42.78 30.46 Q 43.1 30.46 43.66 30.42 L 43.66 30.42 L 43.66 30.42 Q 44.42 30.38 44.76 30.38 L 44.76 30.38 L 44.76 30.38 Q 45.1 30.38 45.35 30.55 L 45.35 30.55 L 45.35 30.55 Q 45.6 30.72 45.6 31.02 L 45.6 31.02 L 45.6 31.02 Q 45.6 31.8 44.9 31.94 L 44.9 31.94 L 44.9 31.94 Q 44.16 32.12 42.6 32.16 L 42.6 32.16 L 42.6 32.16 Q 42.54 32.94 42.54 33.86 L 42.54 33.86 L 42.54 33.86 Q 42.54 35.3 42.72 36.22 L 42.72 36.22 L 42.72 36.22 Q 42.84 36.86 43.13 37.15 L 43.13 37.15 L 43.13 37.15 Q 43.42 37.44 44 37.44 L 44 37.44 L 44 37.44 Q 44.34 37.44 44.7 37.26 L 44.7 37.26 L 44.7 37.26 Q 44.94 37.12 45.14 37.12 L 45.14 37.12 L 45.14 37.12 Q 45.42 37.12 45.55 37.3 L 45.55 37.3 L 45.55 37.3 Q 45.68 37.48 45.68 37.78 L 45.68 37.78 L 45.68 37.78 Q 45.68 38.34 45.08 38.71 L 45.08 38.71 L 45.08 38.71 Q 44.48 39.08 43.54 39.08 L 43.54 39.08 L 43.54 39.08 Q 42.96 39.08 42.37 38.8 L 42.37 38.8 L 42.37 38.8 Q 41.78 38.52 41.38 38.1 L 41.38 38.1 L 41.38 38.1 Q 41.32 38.04 41.16 37.64 L 41.16 37.64 L 41.16 37.64 Q 41 37.24 40.88 36.78 L 40.88 36.78 L 40.88 36.78 Q 40.68 35.84 40.68 34.14 L 40.68 34.14 L 40.68 34.14 Q 40.68 33.4 40.76 32.16 L 40.76 32.16 L 40.76 32.16 Z  M 47.16 34.76 L 47.16 34.76 Q 47.16 34 47.44 33.23 L 47.44 33.23 L 47.44 33.23 Q 47.72 32.46 48.18 31.82 L 48.18 31.82 L 48.18 31.82 Q 48.64 31.18 49.64 30.77 L 49.64 30.77 L 49.64 30.77 Q 50.64 30.36 51.42 30.36 L 51.42 30.36 L 51.42 30.36 Q 52.22 30.36 53.05 30.58 L 53.05 30.58 L 53.05 30.58 Q 53.88 30.8 54.2 31.26 L 54.2 31.26 L 54.2 31.26 Q 54.94 32.3 54.94 33.3 L 54.94 33.3 L 54.94 33.3 Q 54.94 33.84 54.71 34.22 L 54.71 34.22 L 54.71 34.22 Q 54.48 34.6 54.06 35.04 L 54.06 35.04 L 54.06 35.04 Q 53.72 35.4 52.99 35.52 L 52.99 35.52 L 52.99 35.52 Q 52.26 35.64 51.54 35.64 L 51.54 35.64 L 51.54 35.64 Q 51.08 35.64 50.42 35.55 L 50.42 35.55 L 50.42 35.55 Q 49.76 35.46 49.14 35.32 L 49.14 35.32 L 49.14 35.32 Q 49.18 35.72 49.34 36.1 L 49.34 36.1 L 49.34 36.1 Q 49.5 36.48 49.72 36.68 L 49.72 36.68 L 49.72 36.68 Q 50.12 37.06 50.55 37.16 L 50.55 37.16 L 50.55 37.16 Q 50.98 37.26 51.66 37.26 L 51.66 37.26 L 51.66 37.26 Q 52.38 37.26 53 37.02 L 53 37.02 L 53 37.02 Q 53.5 36.84 53.82 36.84 L 53.82 36.84 L 53.82 36.84 Q 54.2 36.84 54.4 37.07 L 54.4 37.07 L 54.4 37.07 Q 54.6 37.3 54.6 37.66 L 54.6 37.66 L 54.6 37.66 Q 54.6 38.16 54.02 38.48 L 54.02 38.48 L 54.02 38.48 Q 53.44 38.8 52.69 38.95 L 52.69 38.95 L 52.69 38.95 Q 51.94 39.1 51.48 39.1 L 51.48 39.1 L 51.48 39.1 Q 50.54 39.1 49.66 38.76 L 49.66 38.76 L 49.66 38.76 Q 48.78 38.42 48.2 37.8 L 48.2 37.8 L 48.2 37.8 Q 47.72 37.24 47.44 36.45 L 47.44 36.45 L 47.44 36.45 Q 47.16 35.66 47.16 34.76 L 47.16 34.76 L 47.16 34.76 Z  M 51.52 32.06 L 51.52 32.06 Q 51.08 32.06 50.64 32.23 L 50.64 32.23 L 50.64 32.23 Q 50.2 32.4 49.92 32.7 L 49.92 32.7 L 49.92 32.7 Q 49.56 33.08 49.43 33.31 L 49.43 33.31 L 49.43 33.31 Q 49.3 33.54 49.26 33.94 L 49.26 33.94 L 49.26 33.94 Q 49.76 34.1 51.34 34.1 L 51.34 34.1 L 51.34 34.1 Q 52.2 34.1 52.67 33.84 L 52.67 33.84 L 52.67 33.84 Q 53.14 33.58 53.14 33.16 L 53.14 33.16 L 53.14 33.16 Q 53.14 32.74 52.62 32.4 L 52.62 32.4 L 52.62 32.4 Q 52.1 32.06 51.52 32.06 L 51.52 32.06 L 51.52 32.06 Z " fill-rule="evenodd" fill="rgb(0,0,0)"/><path d=" M 21.46 312.48 L 21.46 312.48 L 21.46 326.56 L 21.46 326.56 Q 21.46 327.02 20.66 327.02 L 20.66 327.02 L 20.66 327.02 Q 19.86 327.02 19.86 326.56 L 19.86 326.56 L 19.86 312.48 L 19.86 312.48 Q 19.86 312.02 20.66 312.02 L 20.66 312.02 L 20.66 312.02 Q 21.46 312.02 21.46 312.48 Z  M 34.72 317.78 L 34.72 317.78 L 34.72 326.56 L 34.72 326.56 Q 34.72 327.02 33.92 327.02 L 33.92 327.02 L 33.92 327.02 Q 33.12 327.02 33.12 326.56 L 33.12 326.56 L 33.12 317.58 L 33.12 317.58 Q 33.12 316.02 30.39 316.02 L 30.39 316.02 L 30.39 316.02 Q 27.66 316.02 27.66 317.58 L 27.66 317.58 L 27.66 326.56 L 27.66 326.56 Q 27.66 327.02 26.86 327.02 L 26.86 327.02 L 26.86 327.02 Q 26.06 327.02 26.06 326.56 L 26.06 326.56 L 26.06 317.78 L 26.06 317.78 Q 26.06 316.12 27.24 315.37 L 27.24 315.37 L 27.24 315.37 Q 28.42 314.62 30.38 314.62 L 30.38 314.62 L 30.38 314.62 Q 32.34 314.62 33.53 315.37 L 33.53 315.37 L 33.53 315.37 Q 34.72 316.12 34.72 317.78 Z  M 41.72 325.52 L 41.72 325.52 L 43.46 325.52 L 43.46 325.52 Q 46.18 325.52 46.18 323.96 L 46.18 323.96 L 46.18 317.58 L 46.18 317.58 Q 46.18 316.02 43.45 316.02 L 43.45 316.02 L 43.45 316.02 Q 40.72 316.02 40.72 317.58 L 40.72 317.58 L 40.72 331.56 L 40.72 331.56 Q 40.72 332.02 39.92 332.02 L 39.92 332.02 L 39.92 332.02 Q 39.12 332.02 39.12 331.56 L 39.12 331.56 L 39.12 317.78 L 39.12 317.78 Q 39.12 316.12 40.3 315.37 L 40.3 315.37 L 40.3 315.37 Q 41.48 314.62 43.44 314.62 L 43.44 314.62 L 43.44 314.62 Q 45.4 314.62 46.59 315.37 L 46.59 315.37 L 46.59 315.37 Q 47.78 316.12 47.78 317.78 L 47.78 317.78 L 47.78 323.76 L 47.78 323.76 Q 47.78 325.42 46.6 326.17 L 46.6 326.17 L 46.6 326.17 Q 45.42 326.92 43.46 326.92 L 43.46 326.92 L 41.72 326.92 L 41.72 326.92 Q 41.32 326.92 41.32 326.22 L 41.32 326.22 L 41.32 326.22 Q 41.32 325.52 41.72 325.52 Z  M 60.64 315.28 L 60.64 315.28 L 60.64 324.06 L 60.64 324.06 Q 60.64 325.72 59.45 326.47 L 59.45 326.47 L 59.45 326.47 Q 58.26 327.22 56.3 327.22 L 56.3 327.22 L 56.3 327.22 Q 54.34 327.22 53.16 326.47 L 53.16 326.47 L 53.16 326.47 Q 51.98 325.72 51.98 324.06 L 51.98 324.06 L 51.98 315.28 L 51.98 315.28 Q 51.98 314.82 52.78 314.82 L 52.78 314.82 L 52.78 314.82 Q 53.58 314.82 53.58 315.28 L 53.58 315.28 L 53.58 324.26 L 53.58 324.26 Q 53.58 325.82 56.31 325.82 L 56.31 325.82 L 56.31 325.82 Q 59.04 325.82 59.04 324.26 L 59.04 324.26 L 59.04 315.28 L 59.04 315.28 Q 59.04 314.82 59.84 314.82 L 59.84 314.82 L 59.84 314.82 Q 60.64 314.82 60.64 315.28 Z  M 67.44 312.58 L 67.44 312.58 L 67.44 314.92 L 69.54 314.92 L 69.54 314.92 Q 69.94 314.92 69.94 315.62 L 69.94 315.62 L 69.94 315.62 Q 69.94 316.32 69.54 316.32 L 69.54 316.32 L 67.44 316.32 L 67.44 324.58 L 67.44 324.58 Q 67.44 325.22 67.74 325.77 L 67.74 325.77 L 67.74 325.77 Q 68.04 326.32 68.04 326.34 L 68.04 326.34 L 68.04 326.34 Q 68.04 326.58 67.66 326.85 L 67.66 326.85 L 67.66 326.85 Q 67.28 327.12 67.02 327.12 L 67.02 327.12 L 67.02 327.12 Q 66.6 327.12 66.22 326.39 L 66.22 326.39 L 66.22 326.39 Q 65.84 325.66 65.84 324.78 L 65.84 324.78 L 65.84 316.32 L 64.24 316.32 L 64.24 316.32 Q 63.84 316.32 63.84 315.62 L 63.84 315.62 L 63.84 315.62 Q 63.84 314.92 64.24 314.92 L 64.24 314.92 L 65.84 314.92 L 65.84 312.58 L 65.84 312.58 Q 65.84 312.12 66.64 312.12 L 66.64 312.12 L 66.64 312.12 Q 67.44 312.12 67.44 312.58 Z " fill-rule="evenodd" fill="rgb(0,0,0)"/><path d=" M 23.48 364.56 L 23.48 364.56 L 23.48 355.78 L 23.48 355.78 Q 23.48 354.14 24.63 353.38 L 24.63 353.38 L 24.63 353.38 Q 25.78 352.62 27.82 352.62 L 27.82 352.62 L 27.82 352.62 Q 29.86 352.62 30.94 353.68 L 30.94 353.68 L 30.94 353.68 Q 32 352.62 34.04 352.62 L 34.04 352.62 L 34.04 352.62 Q 38.4 352.62 38.4 355.78 L 38.4 355.78 L 38.4 364.56 L 38.4 364.56 Q 38.4 365.02 37.6 365.02 L 37.6 365.02 L 37.6 365.02 Q 36.8 365.02 36.8 364.56 L 36.8 364.56 L 36.8 355.58 L 36.8 355.58 Q 36.8 354.02 34.27 354.02 L 34.27 354.02 L 34.27 354.02 Q 31.74 354.02 31.74 355.62 L 31.74 355.62 L 31.74 364.56 L 31.74 364.56 Q 31.74 365.02 30.94 365.02 L 30.94 365.02 L 30.94 365.02 Q 30.14 365.02 30.14 364.56 L 30.14 364.56 L 30.14 355.58 L 30.14 355.58 Q 30.14 354.02 27.61 354.02 L 27.61 354.02 L 27.61 354.02 Q 25.08 354.02 25.08 355.58 L 25.08 355.58 L 25.08 364.56 L 25.08 364.56 Q 25.08 365.02 24.28 365.02 L 24.28 365.02 L 24.28 365.02 Q 23.48 365.02 23.48 364.56 Z  M 51.26 349.38 L 51.26 349.38 L 51.26 362.06 L 51.26 362.06 Q 51.26 363.72 50.08 364.47 L 50.08 364.47 L 50.08 364.47 Q 48.9 365.22 46.94 365.22 L 46.94 365.22 L 46.94 365.22 Q 44.98 365.22 43.79 364.47 L 43.79 364.47 L 43.79 364.47 Q 42.6 363.72 42.6 362.06 L 42.6 362.06 L 42.6 356.08 L 42.6 356.08 Q 42.6 354.42 43.78 353.67 L 43.78 353.67 L 43.78 353.67 Q 44.96 352.92 46.92 352.92 L 46.92 352.92 L 48.66 352.92 L 48.66 352.92 Q 49.06 352.92 49.06 353.62 L 49.06 353.62 L 49.06 353.62 Q 49.06 354.32 48.66 354.32 L 48.66 354.32 L 46.92 354.32 L 46.92 354.32 Q 44.2 354.32 44.2 355.88 L 44.2 355.88 L 44.2 362.26 L 44.2 362.26 Q 44.2 363.82 46.93 363.82 L 46.93 363.82 L 46.93 363.82 Q 49.66 363.82 49.66 362.26 L 49.66 362.26 L 49.66 349.38 L 49.66 349.38 Q 49.66 348.92 50.46 348.92 L 50.46 348.92 L 50.46 348.92 Q 51.26 348.92 51.26 349.38 Z  M 64.52 355.78 L 64.52 355.78 L 64.52 364.56 L 64.52 364.56 Q 64.52 365.02 63.72 365.02 L 63.72 365.02 L 63.72 365.02 Q 62.92 365.02 62.92 364.56 L 62.92 364.56 L 62.92 355.58 L 62.92 355.58 Q 62.92 354.02 60.19 354.02 L 60.19 354.02 L 60.19 354.02 Q 57.46 354.02 57.46 355.58 L 57.46 355.58 L 57.46 364.56 L 57.46 364.56 Q 57.46 365.02 56.66 365.02 L 56.66 365.02 L 56.66 365.02 Q 55.86 365.02 55.86 364.56 L 55.86 364.56 L 55.86 349.38 L 55.86 349.38 Q 55.86 348.92 56.66 348.92 L 56.66 348.92 L 56.66 348.92 Q 57.46 348.92 57.46 349.38 L 57.46 349.38 L 57.46 353.44 L 57.46 353.44 Q 58.56 352.62 60.35 352.62 L 60.35 352.62 L 60.35 352.62 Q 62.14 352.62 63.33 353.37 L 63.33 353.37 L 63.33 353.37 Q 64.52 354.12 64.52 355.78 Z " fill-rule="evenodd" fill="rgb(0,0,0)"/><path d=" M 45 110 C 28.431 110 15 119.815 15 131.923 C 15 139.679 20.527 146.48 28.846 150.378 L 28.846 163.077 L 41.386 153.671 C 42.572 153.777 43.775 153.846 45 153.846 C 61.569 153.846 75 144.032 75 131.923 C 75 119.815 61.569 110 45 110 Z " fill="none" vector-effect="non-scaling-stroke" stroke-width="1.875" stroke="rgb(0,0,0)" stroke-linejoin="miter" stroke-linecap="butt" stroke-miterlimit="10"/><path d=" M 17.053 173.915 L 15.766 175.045 L 17.868 172.365 L 22.335 170.788 C 22.374 170.775 22.401 170.762 22.427 170.736 L 23.478 170 L 25.186 170.079 L 25.804 170.618 C 25.869 170.67 25.948 170.709 26.027 170.709 L 28.129 170.88 L 28.786 171.537 L 28.576 172.825 L 28.234 173.166 L 23.741 173.508 L 22.677 172.93 C 22.585 172.877 22.466 172.864 22.361 172.904 L 21.35 173.245 L 17.158 173.863 C 17.119 173.863 17.08 173.889 17.053 173.915 L 17.053 173.915 Z  M 26.198 199.496 L 28.852 202.479 L 28.983 200.074 L 26.934 197.946 L 21.836 194.635 L 21.796 194.596 L 17.04 189.209 C 17.027 189.196 17.014 189.182 17.001 189.156 L 15.03 184.216 C 15.017 184.177 15.017 184.15 15.017 184.111 L 15.687 179.526 L 15.713 178.028 C 15.713 177.949 15.739 177.883 15.779 177.818 L 17.934 174.493 C 17.973 174.415 18.052 174.362 18.131 174.336 L 19.261 173.955 L 17.264 174.257 L 14.452 176.753 L 13.9 177.463 L 13.9 184.164 L 15.739 189.156 L 20.246 194.819 L 26.132 199.457 C 26.145 199.47 26.172 199.483 26.198 199.496 L 26.198 199.496 Z  M 35.264 213.726 L 35.329 210.467 L 34.37 208.142 C 34.357 208.128 34.37 208.115 34.357 208.089 L 31.795 206.591 L 31.23 206.999 L 31.085 208.194 L 32.609 213.831 L 37.037 218.521 L 37.09 218.482 L 35.29 213.87 C 35.277 213.831 35.264 213.778 35.264 213.726 L 35.264 213.726 Z  M 44.513 207.458 L 37.904 206.775 C 37.878 206.775 37.865 206.775 37.839 206.762 L 34.081 204.962 L 32.504 206.092 L 38.68 209.705 L 45.564 210.782 L 45.262 208.431 L 44.513 207.458 L 44.513 207.458 Z  M 51.595 216.603 L 48.809 209.508 C 48.783 209.442 48.77 209.377 48.783 209.311 L 49.059 207.248 C 49.099 207.025 49.296 206.88 49.506 206.907 C 49.729 206.946 49.874 207.143 49.847 207.353 L 49.834 207.419 L 55.182 206.92 L 55.221 206.92 L 64.826 208.089 C 64.852 208.089 64.865 208.089 64.891 208.102 L 74.588 212.95 L 69.437 208.352 L 54.433 202.545 L 40.02 195.647 L 33.713 194.937 C 33.7 194.937 33.674 194.924 33.661 194.924 L 22.808 192.047 C 22.755 192.034 22.69 192.007 22.65 191.968 L 17.894 187.842 C 17.855 187.816 17.828 187.777 17.802 187.737 L 15.647 183.874 C 15.608 183.809 15.595 183.743 15.595 183.677 L 15.608 182.561 L 15.385 184.111 L 17.329 188.959 L 22.046 194.293 L 27.144 197.604 C 27.157 197.604 27.17 197.618 27.183 197.631 L 29.036 199.549 C 29.101 199.418 29.246 199.326 29.404 199.339 C 29.614 199.352 29.785 199.536 29.772 199.759 L 29.588 202.991 C 29.574 203.07 29.548 203.162 29.482 203.228 L 29.443 203.28 C 29.443 203.385 29.417 203.504 29.325 203.582 C 29.259 203.648 29.18 203.688 29.088 203.688 L 26.316 206.775 L 24.306 212.267 L 25.226 218.653 L 25.291 218.653 L 26.474 213.844 C 26.487 213.791 26.513 213.739 26.539 213.699 L 28.471 211.072 L 29.259 207.564 C 29.285 207.472 29.338 207.38 29.417 207.327 L 33.91 204.095 C 34.094 203.977 34.331 204.016 34.462 204.187 C 34.58 204.345 34.554 204.555 34.423 204.686 L 37.97 206.381 L 44.172 207.025 L 43.252 205.829 C 43.12 205.658 43.16 205.409 43.331 205.277 C 43.501 205.146 43.751 205.185 43.882 205.356 L 45.945 208.05 C 45.985 208.102 46.011 208.168 46.024 208.234 L 46.642 212.964 L 48.52 215.263 L 54.17 219.638 L 54.209 219.612 L 51.661 216.721 C 51.634 216.682 51.608 216.642 51.595 216.603 Z  M 55.944 216.603 L 53.224 209.679 L 50.649 210.585 L 51.109 212.714 L 52.83 215.289 L 58.466 219.651 L 58.506 219.625 L 56.009 216.721 C 55.983 216.682 55.957 216.642 55.944 216.603 Z  M 75.139 213.66 L 64.786 208.47 L 55.234 207.314 L 49.821 207.813 L 49.624 209.311 L 49.9 210.007 L 53.303 208.799 C 53.382 208.733 53.474 208.707 53.579 208.707 L 55.287 208.102 C 55.339 208.076 55.405 208.063 55.458 208.076 L 64.523 209.061 L 64.642 209.101 L 74.601 213.673 C 74.614 213.673 74.627 213.686 74.64 213.699 L 76.9 215.066 L 75.139 213.66 Z " fill="rgb(82,75,72)"/></g></svg>