<svg id="Layer_1" data-name="Layer 1" xmlns="http://www.w3.org/2000/svg" viewBox="0 0 156.14 324.44"><defs><style>.cls-1{fill:#fff;stroke:#1d1d1b;stroke-miterlimit:10;}.cls-2{fill:#1d1d1b;}</style></defs><title>Untitled-5</title><rect class="cls-1" x="34.54" y="93.25" width="103.54" height="230.69" rx="10.9" ry="10.9"/><rect class="cls-1" x="48.17" y="232.21" width="80.38" height="80.38" rx="10.9" ry="10.9"/><circle class="cls-1" cx="63.38" cy="141.84" r="17.71"/><circle class="cls-1" cx="108.79" cy="141.84" r="17.71"/><path class="cls-2" d="M50,102.43C41.24,81.33,25.72,63.2,19.31,41.11c-1.38-4.78-3.7-12-2.39-17,1.12-4.26,4.65-2.25,7.57-1.06,3.37,1.38,6.67,2.93,9.9,4.62a124.64,124.64,0,0,1,30.06,22A2.53,2.53,0,0,0,68.72,48c.11-7.85,4.34-15.12,8.32-21.68S92.52,9.8,97.91,21.1c3.37,7.07,3.64,16.83,4.5,24.46,1,8.8,1.48,17.63,1.61,26.48,0,2.38,3.49,3.54,4.66,1.27,8-15.51,25.13-26.5,42.88-25.29,4.34.3,10.21,1.88,11.38,6.75,1.34,5.56-4.15,10.72-8.14,13.65-6.08,4.46-12.4,8-15.24,15.41-.86,2.23,1.92,3.67,3.67,2.83,7.47-3.6,21.4-.36,17.56,10.54-3,8.37-16.55,2.7-23.21,3.75-3.17.5-1.82,5.32,1.33,4.82,7.11-1.12,14.7,3.24,21.47-.6,4.17-2.36,6.12-7.2,5.81-11.85-.85-13-15.62-15.73-25.48-11l3.67,2.82c4-10.46,17.91-12.64,22.47-23.2C170.9,52.58,164,45.05,155,43.43c-20.26-3.63-41.53,9.76-50.6,27.35L109,72a275,275,0,0,0-2.83-35.91C105,28,104.54,15.44,95.38,12c-8-3.06-15.86,2.18-20.45,8.46C69.3,28.13,63.86,38.24,63.72,48L68,46.2a129.06,129.06,0,0,0-35.52-25C28.33,19.23,21,14.45,16.35,16.34s-4.62,7.93-4.36,12c1.83,28.3,22.72,50.17,33.17,75.39,1.22,2.93,6.06,1.65,4.82-1.33Z" transform="translate(-11.9 -11.06)"/></svg>