<?xml version="1.0" standalone="no"?><!-- Generator: Gravit.io --><svg xmlns="http://www.w3.org/2000/svg" xmlns:xlink="http://www.w3.org/1999/xlink" style="isolation:isolate" viewBox="0 0 90 380" width="90" height="380"><defs><clipPath id="_clipPath_ExUOwXTMXosEbXxB4xJjIWfGfzYuwHAK"><rect width="90" height="380"/></clipPath></defs><g clip-path="url(#_clipPath_ExUOwXTMXosEbXxB4xJjIWfGfzYuwHAK)"><path d=" M 0 0 L 90 0 L 90 380 L 0 380 L 0 0 Z " fill-rule="evenodd" fill="rgb(240,240,240)"/><path d=" M 23.48 364.56 L 23.48 364.56 L 23.48 355.78 L 23.48 355.78 Q 23.48 354.14 24.63 353.38 L 24.63 353.38 L 24.63 353.38 Q 25.78 352.62 27.82 352.62 L 27.82 352.62 L 27.82 352.62 Q 29.86 352.62 30.94 353.68 L 30.94 353.68 L 30.94 353.68 Q 32 352.62 34.04 352.62 L 34.04 352.62 L 34.04 352.62 Q 38.4 352.62 38.4 355.78 L 38.4 355.78 L 38.4 364.56 L 38.4 364.56 Q 38.4 365.02 37.6 365.02 L 37.6 365.02 L 37.6 365.02 Q 36.8 365.02 36.8 364.56 L 36.8 364.56 L 36.8 355.58 L 36.8 355.58 Q 36.8 354.02 34.27 354.02 L 34.27 354.02 L 34.27 354.02 Q 31.74 354.02 31.74 355.62 L 31.74 355.62 L 31.74 364.56 L 31.74 364.56 Q 31.74 365.02 30.94 365.02 L 30.94 365.02 L 30.94 365.02 Q 30.14 365.02 30.14 364.56 L 30.14 364.56 L 30.14 355.58 L 30.14 355.58 Q 30.14 354.02 27.61 354.02 L 27.61 354.02 L 27.61 354.02 Q 25.08 354.02 25.08 355.58 L 25.08 355.58 L 25.08 364.56 L 25.08 364.56 Q 25.08 365.02 24.28 365.02 L 24.28 365.02 L 24.28 365.02 Q 23.48 365.02 23.48 364.56 Z  M 51.26 349.38 L 51.26 349.38 L 51.26 362.06 L 51.26 362.06 Q 51.26 363.72 50.08 364.47 L 50.08 364.47 L 50.08 364.47 Q 48.9 365.22 46.94 365.22 L 46.94 365.22 L 46.94 365.22 Q 44.98 365.22 43.79 364.47 L 43.79 364.47 L 43.79 364.47 Q 42.6 363.72 42.6 362.06 L 42.6 362.06 L 42.6 356.08 L 42.6 356.08 Q 42.6 354.42 43.78 353.67 L 43.78 353.67 L 43.78 353.67 Q 44.96 352.92 46.92 352.92 L 46.92 352.92 L 48.66 352.92 L 48.66 352.92 Q 49.06 352.92 49.06 353.62 L 49.06 353.62 L 49.06 353.62 Q 49.06 354.32 48.66 354.32 L 48.66 354.32 L 46.92 354.32 L 46.92 354.32 Q 44.2 354.32 44.2 355.88 L 44.2 355.88 L 44.2 362.26 L 44.2 362.26 Q 44.2 363.82 46.93 363.82 L 46.93 363.82 L 46.93 363.82 Q 49.66 363.82 49.66 362.26 L 49.66 362.26 L 49.66 349.38 L 49.66 349.38 Q 49.66 348.92 50.46 348.92 L 50.46 348.92 L 50.46 348.92 Q 51.26 348.92 51.26 349.38 Z  M 64.52 355.78 L 64.52 355.78 L 64.52 364.56 L 64.52 364.56 Q 64.52 365.02 63.72 365.02 L 63.72 365.02 L 63.72 365.02 Q 62.92 365.02 62.92 364.56 L 62.92 364.56 L 62.92 355.58 L 62.92 355.58 Q 62.92 354.02 60.19 354.02 L 60.19 354.02 L 60.19 354.02 Q 57.46 354.02 57.46 355.58 L 57.46 355.58 L 57.46 364.56 L 57.46 364.56 Q 57.46 365.02 56.66 365.02 L 56.66 365.02 L 56.66 365.02 Q 55.86 365.02 55.86 364.56 L 55.86 364.56 L 55.86 349.38 L 55.86 349.38 Q 55.86 348.92 56.66 348.92 L 56.66 348.92 L 56.66 348.92 Q 57.46 348.92 57.46 349.38 L 57.46 349.38 L 57.46 353.44 L 57.46 353.44 Q 58.56 352.62 60.35 352.62 L 60.35 352.62 L 60.35 352.62 Q 62.14 352.62 63.33 353.37 L 63.33 353.37 L 63.33 353.37 Q 64.52 354.12 64.52 355.78 Z " fill-rule="evenodd" fill="rgb(0,0,0)"/></g></svg>